<svg width="20" height="20" viewBox="0 0 20 20" fill="none" xmlns="http://www.w3.org/2000/svg">
<rect width="20" height="20" fill="#E5E5E5"/>
<g id="Visualiza&#195;&#167;&#195;&#163;o de Admin">
<g id="Visualiza&#195;&#167;&#195;&#163;o de admin - Perguntas">
<rect width="1440" height="820" transform="translate(-176 -300)" fill="#FBFCFF"/>
<g id="Input">
<path d="M-15 -87H1096C1099.87 -87 1103 -83.866 1103 -80V38C1103 41.866 1099.87 45 1096 45H-8.00002C-11.866 45 -15 41.866 -15 38V-87Z" stroke="#A1B2CD" stroke-width="2"/>
<g id="Bottom">
<g id="Pergunta an&#195;&#180;nima">
<g id="lock_black_24dp 1" clip-path="url(#clip0_0_1)">
<path id="Vector" d="M14.9999 6.66671H14.1666V5.00004C14.1666 2.70004 12.2999 0.833374 9.99992 0.833374C7.69992 0.833374 5.83325 2.70004 5.83325 5.00004V6.66671H4.99992C4.08325 6.66671 3.33325 7.41671 3.33325 8.33337V16.6667C3.33325 17.5834 4.08325 18.3334 4.99992 18.3334H14.9999C15.9166 18.3334 16.6666 17.5834 16.6666 16.6667V8.33337C16.6666 7.41671 15.9166 6.66671 14.9999 6.66671ZM9.99992 14.1667C9.08325 14.1667 8.33325 13.4167 8.33325 12.5C8.33325 11.5834 9.08325 10.8334 9.99992 10.8334C10.9166 10.8334 11.6666 11.5834 11.6666 12.5C11.6666 13.4167 10.9166 14.1667 9.99992 14.1667ZM12.5833 6.66671H7.41658V5.00004C7.41658 3.57504 8.57492 2.41671 9.99992 2.41671C11.4249 2.41671 12.5833 3.57504 12.5833 5.00004V6.66671Z" fill="#A5B0C1"/>
</g>
</g>
</g>
</g>
</g>
<g id="Arrows">
</g>
</g>
<defs>
<clipPath id="clip0_0_1">
<rect width="20" height="20" fill="white"/>
</clipPath>
</defs>
</svg>
